<?xml version="1.0" encoding="utf-8"?>
<svg viewBox="-250 0 900 350" xmlns="http://www.w3.org/2000/svg">
  <path d="M 262.065 26.726 L 262.368 27.692 L 262.42 28.597 L 261.043 29.437 L 260.137 29.924 L 259.05 32.243 L 257.038 33.818 L 256.7 34.299 L 256.717 34.728 L 258.083 35.44 L 258.538 36.112 L 258.75 37.016 L 258.139 40.244 L 257.757 42.719 L 257.256 45.952 L 257.277 47.182 L 257.792 48.66 L 258.305 49.805 L 258.465 51.102 L 258.284 54.295 L 258.91 56.139 L 259.414 57.838 L 258.217 59.951 L 257.705 61.816 L 257.384 64.481 L 257.256 66.155 L 256.484 67.705 L 255.479 69.15 L 254.346 70.054 L 252.948 70.834 L 251.338 71.858 L 250.033 74.595 L 247.213 76.869 L 246.622 77.648 L 246.36 79.466 L 246.427 81.982 L 246.922 83.981 L 248.274 86.93 L 249.459 90.169 L 249.779 91.797 L 250.237 92.417 L 251.903 93.475 L 254.786 94.906 L 255.319 95.495 L 256.746 97.715 L 258.104 101.694 L 258.529 104.324 L 261.168 106.409 L 263.606 108.331 L 265.944 110.015 L 268.487 111.844 L 268.854 112.406 L 269.699 116.271 L 270.543 120.103 L 271.464 124.318 L 272.396 128.534 L 273.494 133.482 L 274.114 136.277 L 274.866 139.671 L 275.748 143.638 L 274.327 144.48 L 272.722 145.553 L 273.89 147.589 L 276.147 150.895 L 277.51 153.561 L 277.985 154.718 L 279.048 158.014 L 279.91 161.201 L 280.135 162.234 L 280.449 164.688 L 280.062 171.418 L 280.682 179.925 L 281.521 184.151 L 280.202 187.958 L 279.072 191.59 L 279.144 193.413 L 279.768 196.248 L 280.377 198.351 L 281.207 199.452 L 281.043 202.975 L 280.697 204.251 L 278.163 206.094 L 275.352 207.784 L 274.575 209.209 L 274.353 210.8 L 274.726 212.092 L 276.654 214.948 L 279.558 219.22 L 282.753 223.915 L 283.018 225.094 L 283.146 228.42 L 284.477 232.589 L 285.916 234.407 L 286.455 235.76 L 287.475 236.731 L 288.488 237.444 L 289.12 237.527 L 292.706 236.395 L 298.84 238.265 L 304.644 240.161 L 305.067 240.538 L 306.337 242.94 L 308.41 246.861 L 309.948 249.992 L 311.326 252.791 L 303.806 257.61 L 296.279 262.419 L 288.756 267.213 L 281.236 271.997 L 273.715 276.775 L 266.189 281.543 L 258.669 286.3 L 251.148 291.037 L 246.156 294.178 L 242.984 296.951 L 239.003 300.417 L 235.245 303.853 L 232.289 306.559 L 228.459 310.046 L 226.528 311.807 L 222.258 315.696 L 220.974 316.389 L 215.317 317.536 L 210.124 318.584 L 205.333 319.555 L 202.056 320.217 L 198.881 320.857 L 194.271 321.762 L 190.979 322.411 L 187.426 323.104 L 186.873 323.223 L 186.232 323.249 L 185.751 323.223 L 184.767 322.84 L 183.581 321.932 L 182.789 321.467 L 182.594 320.749 L 183.054 319.794 L 183.628 318.936 L 183.846 318.259 L 184.24 317.748 L 184.746 317.333 L 184.767 316.745 L 184.347 315.779 L 183.98 314.447 L 183.995 312.018 L 184.007 311.209 L 184.007 310.919 L 182.943 309.989 L 180.943 308.962 L 179.099 308.361 L 178.26 308.15 L 176.227 307.788 L 173.416 307.138 L 172.426 306.693 L 170.606 304.436 L 169.709 303.857 L 165.491 303.475 L 164.087 303.099 L 162.94 302.567 L 161.955 301.838 L 161.402 300.598 L 161.236 299.586 L 160.869 299.099 L 156.214 296.651 L 155.029 295.82 L 154.403 295.045 L 154.382 293.898 L 154.508 292.493 L 154.31 291.238 L 154.111 290.628 L 151.985 289.141 L 147.229 285.809 L 142.473 282.477 L 137.713 279.135 L 132.957 275.793 L 128.201 272.445 L 123.444 269.088 L 118.685 265.73 L 113.929 262.362 L 109.173 258.99 L 104.41 255.622 L 99.66 252.232 L 94.901 248.849 L 90.144 245.461 L 85.382 242.057 L 80.626 238.652 L 75.87 235.238 L 71.847 232.356 L 67.411 229.303 L 64.114 227.067 L 60.841 224.835 L 57.322 222.443 L 55.036 220.955 L 52.307 219.178 L 49.575 217.396 L 46.84 215.62 L 44.108 213.838 L 41.376 212.056 L 38.641 210.268 L 35.914 208.486 L 33.179 206.694 L 30.447 204.901 L 27.718 203.108 L 24.986 201.317 L 22.254 199.524 L 19.519 197.726 L 16.787 195.923 L 14.055 194.12 L 11.326 192.318 L 11.326 188.986 L 11.326 186.269 L 11.326 182.271 L 11.326 178.795 L 11.326 175.313 L 11.326 172.916 L 11.326 170.411 L 11.399 169.28 L 11.667 168.799 L 13.143 167.983 L 15.45 166.124 L 16.307 165.296 L 17.399 164.465 L 21.264 161.945 L 22.068 161.237 L 25.825 158.334 L 26.705 157.911 L 28.723 157.627 L 29.568 157.079 L 30.701 155.916 L 32.367 154.589 L 33.45 153.953 L 33.709 153.84 L 34.403 153.747 L 37.875 154.139 L 39.334 154.44 L 41.078 154.687 L 41.623 154.517 L 42.089 154.098 L 42.744 153.168 L 42.884 152.062 L 42.928 151.096 L 43.03 150.679 L 43.336 150.487 L 44.096 150.56 L 45.112 150.689 L 47.186 150.648 L 47.891 150.513 L 50.247 150.302 L 53.574 149.677 L 56.215 148.855 L 58.315 148.204 L 60.567 146.5 L 62.218 144.696 L 63.931 142.006 L 65.294 139.671 L 68.052 138.209 L 70.356 137.32 L 71.676 136.974 L 74.667 135.74 L 77.198 133.869 L 79.575 132.113 L 81.392 131.881 L 83.69 131.592 L 84.203 131.261 L 84.782 130.641 L 84.814 129.541 L 84.118 128.767 L 83.282 128.363 L 82.685 127.914 L 82.097 127.832 L 81.779 127.299 L 81.957 126.323 L 82.044 125.424 L 82.423 124.52 L 82.318 123.238 L 81.727 121.963 L 81.546 121.044 L 81.587 120.129 L 81.878 119.422 L 82.726 118.947 L 83.716 118.766 L 85.103 118.993 L 87.5 118.688 L 93.634 116.478 L 94.059 115.795 L 94.452 114.262 L 94.892 112.918 L 95.527 112.47 L 95.874 112.366 L 97.918 112.005 L 100.813 111.498 L 101.9 111.426 L 105.057 111.57 L 107.355 111.678 L 111.072 111.854 L 113.713 111.941 L 116.011 112.019 L 118.942 112.123 L 119.661 111.813 L 119.661 110.831 L 119.131 109.003 L 119.454 107.862 L 120.581 106.803 L 121.988 105.619 L 121.333 104.173 L 120.209 103.207 L 118.639 102.045 L 117.826 101.575 L 116.405 100.164 L 115.534 98.563 L 114.945 95.174 L 113.862 93.274 L 113.076 90.928 L 113.775 86.615 L 112.729 84.002 L 112.569 82.871 L 112.557 81.537 L 112.877 79.224 L 112.671 75.97 L 111.439 72.607 L 112.018 71.46 L 112.289 70.861 L 112.202 70.349 L 111.077 69.274 L 110.603 68.391 L 110.85 67.56 L 111.436 66.351 L 111.383 65.84 L 109.566 64.367 L 106.502 61.97 L 105.643 60.922 L 105.223 59.61 L 108.159 59.946 L 109.674 59.786 L 113.154 58.205 L 115.918 56.071 L 118.065 54.987 L 119.955 52.647 L 121.668 51.163 L 124.143 49.568 L 131.279 46.112 L 132.372 46.088 L 134.722 46.872 L 136.767 46.628 L 138.165 45.42 L 139.671 42.502 L 142.007 40.72 L 144.951 38.933 L 148.956 37.222 L 151.58 35.652 L 155.734 34.283 L 166.152 33.421 L 171.506 32.645 L 175.143 32.822 L 178.819 30.321 L 180.657 29.495 L 188.611 29.299 L 192.366 27.47 L 206.591 27.47 L 208.33 28.079 L 210.037 29.067 L 212.946 31.442 L 214.397 31.959 L 216.276 31.468 L 220.644 29.216 L 225.57 28.043 L 228.252 26.706 L 229.391 24.747 L 231.701 24.025 L 233 25.533 L 238.109 27.047 L 241.245 26.613 L 242.62 26.153 L 242.125 23.906 L 245.443 24.505 L 247.988 25.59 L 250.656 27.759 L 252.383 28.188 L 255.532 27.211 Z" title="Algeria" fill="black" id="DZ" style=""/>
  <polyline id="w1" style="stroke: rgb(255, 255, 255); fill: rgb(18, 96, 0);" points="174.7570037841797 99.75399780273438 173.97300720214844 92.7040023803711 173.97300720214844 91.13700103759766 173.97300720214844 90.61499786376953 173.97300720214844 87.74299621582031 172.30599975585938 79.63200378417969 170.48300170898438 77.00399780273438 169.44400024414062 74.61799621582031 167.11500549316406 72.77899932861328 174.7570037841797 69.72599792480469 182.32899475097656 68.15899658203125 186.66700744628906 68.15899658203125 189.24600219726562 67.98799896240234 194.6649932861328 67.00800323486328 195.02200317382812 62.10499954223633 199.01400756835938 61.96699905395508 202.00900268554688 61.59400177001953 204.21499633789062 61.220001220703125 205.97900390625 60.79399871826172 210.58299255371094 60.090999603271484 216.01300048828125 58.75899887084961 217.5800018310547 56.66999816894531 224.6300048828125 54.31999969482422 224.6300048828125 54.31999969482422 230.89700317382812 51.446998596191406 236.64199829101562 50.40299987792969 241.3419952392578 49.61899948120117 247.34800720214844 49.61899948120117 249.95899963378906 49.61899948120117 254.9199981689453 47.26900100708008 256.9679870605469 47.04899978637695 257.3659973144531 48.112998962402344 257.73199462890625 48.987998962402344 258.3380126953125 51.893001556396484 257.9800109863281 54.069000244140625 259.4230041503906 57.777000427246094 257.5830078125 61.220001220703125 257.1759948730469 64.23799896240234 257.02301025390625 65.9729995727539 256.32000732421875 67.33100128173828 254.66400146484375 69.50700378417969 251.43600463867188 71.50499725341797 250.4969940185547 72.94300079345703 249.43699645996094 74.947998046875 247.32000732421875 76.7300033569336 245.77200317382812 78.28700256347656 246.2220001220703 79.57499694824219 246.41900634765625 82.97899627685547 246.8260040283203 84.87100219726562 247.14700317382812 85.77899932861328 246.69700622558594 86.38600158691406 245.39599609375 86.75900268554688 242.34800720214844 87.81199645996094 238.99200439453125 88.26499938964844 234.031005859375 90.8759994506836 229.85299682617188 91.66000366210938 223.58599853515625 94.27100372314453 221.23599243164062 94.79299926757812 215.49099731445312 97.14299774169922 213.40199279785156 98.18800354003906 210.2689971923828 99.23200225830078 205.56900024414062 99.23200225830078 202.1739959716797 98.4489974975586 198.2570037841797 98.4489974975586 192.7740020751953 97.927001953125 191.53399658203125 97.98699951171875 188.1529998779297 98.10800170898438 185.7779998779297 98.87300109863281 182.8000030517578 99.03399658203125 181.3509979248047 99.11399841308594 179.49899291992188 99.31600189208984 177.8489990234375 99.23500061035156 176.1580047607422 99.35600280761719 174.18800354003906 99.89399719238281"/>
  <polyline id="w2" style="stroke: rgb(255, 255, 255); fill: rgb(18, 96, 0);" points="228.7729949951172 26.81599998474121 225.45799255371094 27.97599983215332 220.81399536132812 29.465999603271484 214.69500732421875 31.9950008392334 211.65499877929688 37.45199966430664 213.63900756835938 40.92100143432617 209.36599731445312 45.52899932861328 209.36599731445312 47.44200134277344 209.36599731445312 51.54199981689453 211.00599670410156 54.82099914550781 214.01199340820312 58.374000549316406 215.3780059814453 59.46699905395508 222.2100067138672 55.095001220703125 228.49600219726562 53.45500183105469 238.60800170898438 51.26900100708008 245.16700744628906 50.17499923706055 252.27200317382812 49.35599899291992 257.7380065917969 47.98899841308594 258.2850036621094 43.88999938964844 258.2850036621094 37.33100128173828 258.0140075683594 35.86600112915039 256.37200927734375 35.14400100708008 258.6300048828125 32.3129997253418 262.2340087890625 29.538000106811523 261.7349853515625 26.97100067138672 255.64599609375 27.246999740600586 251.4969940185547 28.490999221801758 247.83900451660156 25.558000564575195 242.25399780273438 24.131000518798828 242.5279998779297 26.524999618530273 238.30099487304688 27.017000198364258 232.61500549316406 25.761999130249023 231.70799255371094 24.368000030517578 229.51600646972656 25.05900001525879 228.5399932861328 26.643999099731445"/>
  <polyline id="w3" style="stroke: rgb(255, 255, 255); fill: rgb(18, 96, 0);" points="188.11399841308594 29.802000045776367 187.05499267578125 33.40299987792969 187.26600646972656 34.67300033569336 188.3249969482422 38.0620002746582 188.3249969482422 41.027000427246094 188.4759979248047 43.14500045776367 188.8070068359375 44.617000579833984 189.4010009765625 46.983001708984375 188.62100219726562 47.56800079345703 187.79200744628906 48.22100067138672 186.7949981689453 48.928001403808594 184.7949981689453 50.04100036621094 183.74899291992188 51.55400085449219 183.60000610351562 53.55699920654297 184.22300720214844 55.14500045776367 186.4739990234375 54.57500076293945 188.44000244140625 54.29600143432617 190.01600646972656 54.50600051879883 191.14999389648438 55.479000091552734 192.48899841308594 57.104000091552734 193.49099731445312 58.08399963378906 193.20700073242188 58.45899963378906 193.76199340820312 60.03499984741211 195.11599731445312 61.900001525878906 199.10699462890625 61.775001525878906 202.22500610351562 61.207000732421875 211.03799438476562 59.86199951171875 215.48399353027344 59.604000091552734 209.74600219726562 52.95800018310547 209.4239959716797 48.8129997253418 209.50399780273438 45.444000244140625 212.21800231933594 42.599998474121094 213.73800659179688 40.84400177001953 212.3719940185547 38.41999816894531 211.47000122070312 37.17499923706055 214.5970001220703 32.18299865722656 213.0290069580078 31.632999420166016 207.64500427246094 27.8439998626709 199.9669952392578 27.64900016784668 192.2469940185547 27.757999420166016 189.41600036621094 29.263999938964844 187.69000244140625 29.590999603271484"/>
  <polyline id="w4" style="stroke: rgb(255, 255, 255); fill: rgb(18, 96, 0);" points="149.8699951171875 38.72600173950195 151.03900146484375 40.15700149536133 152.83200073242188 43.64799880981445 153.9530029296875 44.84299850463867 156.1479949951172 45.915000915527344 158.32200622558594 47.060001373291016 160.947998046875 49.54399871826172 162.0449981689453 52.67300033569336 164.88999938964844 56.277000427246094 165.8459930419922 62.24800109863281 167.51699829101562 67.73999786376953 166.89199829101562 72.33300018310547 169.5469970703125 72.15799713134766 173.1750030517578 70.43800354003906 176.875 69.29100036621094 179.93800354003906 68.74099731445312 183.60800170898438 68.28800201416016 188.91600036621094 68.072998046875 194.19400024414062 67.06999969482422 194.6230010986328 66.18800354003906 195.33900451660156 64.03900146484375 195.45799255371094 61.4119987487793 193.78700256347656 58.42599868774414 191.36300659179688 56.178001403808594 189.37600708007812 54.02000045776367 186.96299743652344 54.465999603271484 184.5919952392578 55.321998596191406 183.4810028076172 52.266998291015625 184.41000366210938 50.81100082397461 188.28799438476562 48.492000579833984 189.38800048828125 46.74700164794922 188.68299865722656 43.41299819946289 188.24000549316406 37.77899932861328 187.5780029296875 36.45600128173828 187.93600463867188 31.559999465942383 188.00799560546875 29.631000518798828 186.5030059814453 28.575000762939453 179.33900451660156 29.052000045776367 173.24899291992188 31.917999267578125 170.86099243164062 31.679000854492188 164.29299926757812 32.75400161743164 160.35299682617188 33.59000015258789 157.6060028076172 34.1870002746582 152.71099853515625 34.90299987792969 151.44700622558594 36.194000244140625 149.15199279785156 37.19499969482422 149.96400451660156 38.84400177001953"/>
  <polyline id="w5" style="stroke: rgb(255, 255, 255); fill: rgb(18, 96, 0);" points="153.79600524902344 291.3760070800781 8.571999549865723 191.0449981689453 9.61199951171875 168.32200622558594 26.941999435424805 156.43600463867188 33.78799819946289 153.6320037841797 40.45899963378906 153.98899841308594 40.45899963378906 150.4929962158203 56.40299987792969 149.44400024414062 61.255001068115234 145.24899291992188 65.43000030517578 139.34800720214844 71.65299987792969 136.50999450683594 77.89199829101562 133.36399841308594 83.78399658203125 129.8679962158203 81.625 127.37200164794922 80.66400146484375 125.322998046875 79.625 121.12799835205078 79.625 116.93299865722656 90.36900329589844 115.88400268554688 95.50399780273438 112.45500183105469 100.00299835205078 111.1050033569336 116.36399841308594 112.05599975585938 118.79000091552734 107.1449966430664 121.94999694824219 105.86499786376953 116.25599670410156 100.33799743652344 113.93800354003906 94.20999908447266 112.5510025024414 91.76300048828125 112.5510025024414 83.7229995727539 112.5510025024414 82.67400360107422 112.71399688720703 79.45500183105469 111.58200073242188 72.552001953125 111.16500091552734 69.38899993896484 109.08499908447266 67.64099884033203 109.41300201416016 64.13600158691406 105.58200073242188 61.45399856567383 103.88600158691406 57.15399932861328 110.47200012207031 57.15399932861328 120.1760025024414 50.512001037597656 125.375 46.66699981689453 126.06900024414062 46.66699981689453 131.26800537109375 45.61800003051758 133.69400024414062 45.61800003051758 137.85299682617188 43.17100143432617 149.0229949951172 36.92599868774414 153.10299682617188 44.21900177001953 160.3820037841797 48.415000915527344 162.11500549316406 52.95899963378906 165.23399353027344 57.85300064086914 167.31399536132812 67.64099884033203 167.31399536132812 72.88500213623047 171.12600708007812 76.73100280761719 173.8990020751953 83.37300109863281 174.24600219726562 93.16100311279297 174.24600219726562 101.2020034790039 174.5919952392578 105.39700317382812 176.6719970703125 113.43800354003906 180.13800048828125 118.33100128173828 184.64300537109375 127.07099914550781 191.22900390625 148.39500427246094 191.5749969482422 163.42799377441406 191.22900390625 179.85800170898438 191.22900390625 208.1739959716797 191.22900390625 220.75999450683594 188.80299377441406 235.44200134277344 184.64300537109375 255.02000427246094 178.75100708007812 264.4580078125 169.39300537109375 276.6940002441406 163.84800720214844 287.1809997558594 160.03500366210938 292.77398681640625 158.9949951171875 298.3680114746094 155.06199645996094 296.1050109863281 154.36900329589844 295.0169982910156"/>
  <polyline id="w6" style="stroke: rgb(255, 255, 255); fill: rgb(18, 96, 0);" points="199.62899780273438 96.59600067138672 174.06900024414062 100.47000122070312 174.76400756835938 107.49500274658203 176.55999755859375 113.6729965209961 182.86900329589844 123.5780029296875 185.5279998779297 129.07000732421875 186.76400756835938 133.6230010986328 191.69500732421875 147.98599243164062 191.38600158691406 156.4290008544922 191.6719970703125 172.552001953125 191.4429931640625 178.3249969482422 191.63800048828125 192.38400268554688 191.54800415039062 210.94500732421875 191.49099731445312 220.86700439453125 189.6840057373047 233.13299560546875 186.91000366210938 246.4409942626953 184.8679962158203 255.25399780273438 167.98599243164062 279.4830017089844 160.34800720214844 292.635986328125 159.30799865722656 297.96600341796875 162.39199829101562 302.364990234375 169.22300720214844 303.2090148925781 172.2480010986328 306.5270080566406 183.70199584960938 310.41900634765625 184.91799926757812 317.9020080566406 182.70700073242188 321.1619873046875 185.52699279785156 323.9849853515625 221.66000366210938 316.0790100097656 246.33099365234375 294.01300048828125 311.1679992675781 253.06900024414062 306.4259948730469 243.19500732421875 305.22900390625 240.49899291992188 292.64599609375 236.6739959716797 282.8429870605469 229.43600463867188 282.97900390625 224.54299926757812 274.0350036621094 211.25 280.84100341796875 203.9720001220703 281.70001220703125 184.0570068359375 280.6910095214844 179.58999633789062 280.20001220703125 164.65699768066406 277.89300537109375 153.34100341796875 272.9519958496094 145.30499267578125 275.5660095214844 143.5070037841797 274.0069885253906 135.4530029296875 268.3919982910156 111.44599914550781 258.364990234375 104.28299713134766 255.35699462890625 95.41200256347656 250.13099670410156 91.23799896240234 247.3699951171875 86.19300079345703 238.98599243164062 89.0250015258789 222.7530059814453 94.33899688720703 204.125 99.31700134277344"/>
  <polygon style="fill: rgb(216, 216, 216); stroke: rgb(0, 0, 0);" points="261.510009765625 21.650999069213867 262.9949951171875 29.60700035095215 258.8710021972656 32.849998474121094 257.2349853515625 34.82699966430664 259.0320129394531 36.19900131225586 258.3699951171875 49.11800003051758 258.9230041503906 52.85599899291992 258.6470031738281 54.85499954223633 260.02899169921875 57.53900146484375 257.89801025390625 61.284000396728516 257.36700439453125 66.81199645996094 255.1269989013672 69.2490005493164 251.2729949951172 71.96800231933594 249.89700317382812 75.29199981689453 246.1719970703125 78.66699981689453 246.86900329589844 83.29199981689453 250.65899658203125 90.73300170898438 255.61199951171875 94.80500030517578 258.8269958496094 103.91100311279297 268.50799560546875 110.74800109863281 271.83099365234375 125.27400207519531 276.0360107421875 143.39199829101562 273.27099609375 145.7550048828125 278.79998779296875 153.5659942626953 280.21099853515625 163.38499450683594 280.8219909667969 168.1490020751953 281.0469970703125 178.61500549316406 282.32000732421875 184.56399536132812 281.4100036621094 204.63999938964844 274.80499267578125 211.5 280.3330078125 220.99099731445312 282.2969970703125 221.1649932861328 283.1260070800781 224.07400512695312 283.29400634765625 229.2519989013672 293.135986328125 236.77999877929688 297.9729919433594 238.0590057373047 301.12298583984375 239.22900390625 305.6780090332031 240.26100158691406 309.07501220703125 247.28700256347656 311.2640075683594 252.1959991455078 309.9169921875 254.4709930419922 307.5350036621094 255.9759979248047 304.67498779296875 257.6929931640625 302.3680114746094 259.2770080566406 299.3330078125 260.70098876953125 296.5400085449219 262.52398681640625 292.73699951171875 264.6390075683594 290.5870056152344 265.92401123046875 288.3919982910156 267.31298828125 285.781005859375 268.8689880371094 283.09100341796875 270.80999755859375 280.48699951171875 272.4169921875 277.7099914550781 274.0820007324219 274.2869873046875 275.8919982910156 246.4219970703125 293.1300048828125 222.25100708007812 315.7749938964844 185.97500610351562 324.5459899902344 219.0399932861328 326.1600036621094 612.8800048828125 324.7200012207031 613.5999755859375 20.8799991607666"/>
</svg>